<?xml version="1.0" encoding="UTF-8" standalone="no"?>
<!DOCTYPE svg PUBLIC "-//W3C//DTD SVG 1.1//EN" "http://www.w3.org/Graphics/SVG/1.1/DTD/svg11.dtd">
<svg xmlns="http://www.w3.org/2000/svg" version="1.1" viewBox="0.00 0.00 280.00 280.00">
<g stroke-width="2.00" fill="none" stroke-linecap="butt">
<path stroke="#8e80a0" vector-effect="non-scaling-stroke" d="
  M 267.43 195.10
  L 229.71 195.04
  A 2.30 2.24 22.0 0 0 228.10 195.70
  L 213.43 210.36
  A 2.20 2.17 22.0 0 1 211.87 211.01
  L 43.95 210.99
  Q 43.21 210.99 42.81 210.37
  L 33.45 195.68
  A 1.47 1.47 0.0 0 0 32.20 195.01
  L 13.55 195.25"
/>
<path stroke="#8e80a0" vector-effect="non-scaling-stroke" d="
  M 246.30 229.61
  Q 234.99 229.83 223.75 229.65
  C 217.98 229.55 213.31 228.54 209.42 224.12
  C 206.44 220.73 202.35 217.64 198.41 222.29
  C 195.55 225.66 191.90 228.72 187.41 229.47
  Q 180.30 230.67 174.05 228.01
  C 170.97 226.70 169.11 223.65 166.69 221.47
  C 164.27 219.29 161.00 219.50 158.86 221.94
  Q 157.50 223.50 156.02 224.96
  C 151.46 229.44 145.20 230.55 139.05 229.48
  Q 131.60 228.18 128.46 223.11
  C 125.48 218.29 120.88 219.38 117.71 223.14
  Q 110.58 231.58 98.35 229.39
  Q 91.26 228.12 87.36 222.42
  C 84.97 218.92 81.07 219.04 78.48 222.11
  C 74.82 226.46 70.05 229.02 64.25 229.55
  Q 57.63 230.15 34.71 229.49"
/>
<path stroke="#8e80a0" vector-effect="non-scaling-stroke" d="
  M 235.70 240.15
  Q 227.29 240.03 219.25 239.79
  Q 212.60 239.59 207.78 235.84
  Q 205.73 234.24 203.76 232.43
  A 0.85 0.84 -42.7 0 0 202.66 232.39
  C 200.74 233.94 198.93 235.54 196.78 236.82
  C 190.68 240.46 182.54 241.14 175.43 239.52
  C 170.97 238.50 167.32 235.46 163.98 232.29
  A 1.07 1.07 0.0 0 0 162.52 232.27
  C 157.56 236.80 153.03 239.68 145.92 240.24
  Q 139.03 240.79 133.84 239.25
  C 129.82 238.05 126.90 235.22 123.81 232.42
  Q 123.07 231.75 122.36 232.44
  Q 115.17 239.47 105.88 240.21
  Q 98.96 240.75 93.31 239.16
  C 89.01 237.95 86.52 234.86 83.28 232.13
  Q 82.76 231.69 82.26 232.16
  Q 73.81 240.15 63.50 240.07
  Q 54.53 240.00 45.06 240.21"
/>
<path stroke="#8e80a0" vector-effect="non-scaling-stroke" d="
  M 225.51 249.92
  Q 220.22 254.13 218.02 254.54
  C 211.43 255.75 197.04 256.09 192.61 249.79
  C 189.58 245.49 185.10 243.11 181.15 248.19
  Q 178.99 250.97 176.26 252.45
  Q 165.10 258.49 152.46 253.28
  C 150.13 252.32 148.25 249.78 146.61 247.88
  C 141.53 242.00 137.57 247.36 133.96 250.78
  C 128.19 256.25 117.52 256.70 110.40 254.08
  C 107.24 252.92 104.83 250.53 102.78 247.91
  C 100.20 244.63 95.59 244.34 92.81 247.53
  C 90.14 250.58 87.73 253.07 83.50 254.01
  Q 73.16 256.30 61.75 254.49"
/>
<path stroke="#8e80a0" vector-effect="non-scaling-stroke" d="
  M 200.50 265.59
  C 194.86 264.29 190.55 261.18 186.54 257.17
  Q 186.13 256.76 185.73 257.18
  Q 174.04 269.36 155.99 265.68
  Q 147.80 264.01 141.97 256.89
  Q 141.62 256.46 141.27 256.89
  C 130.85 269.59 108.26 270.10 97.95 256.94
  Q 97.59 256.48 97.18 256.91
  Q 90.60 263.93 81.29 265.56"
/>
<path stroke="#8e80a0" vector-effect="non-scaling-stroke" d="
  M 128.15 23.85
  C 124.55 25.79 119.73 26.74 115.46 26.70
  Q 109.75 26.65 104.05 26.92
  Q 103.61 26.94 103.79 27.34
  Q 109.36 39.62 123.03 39.14
  Q 129.74 38.90 134.75 34.56
  Q 135.15 34.21 135.15 33.67
  L 135.15 19.60
  A 0.34 0.33 -20.2 0 0 134.60 19.35
  Q 131.17 22.22 128.15 23.85"
/>
<path stroke="#826f9d" vector-effect="non-scaling-stroke" d="
  M 145.00 137.00
  L 145.09 179.57
  A 0.48 0.48 0.0 0 0 145.57 180.05
  L 220.46 180.08
  Q 221.04 180.08 220.81 179.55
  L 217.80 172.35"
/>
<path stroke="#8e80a0" vector-effect="non-scaling-stroke" d="
  M 217.80 172.35
  C 214.16 165.05 211.13 156.25 208.31 149.93
  Q 202.65 137.28 196.88 124.58
  C 194.08 118.41 192.00 111.99 189.24 106.11
  Q 181.27 89.20 172.55 71.92
  C 171.89 70.61 171.41 68.67 170.61 67.12
  C 165.89 58.06 161.26 48.88 156.04 40.11
  Q 152.54 34.24 149.83 28.34
  C 148.61 25.67 146.84 23.53 145.55 20.86
  Q 145.09 19.93 145.09 20.97
  L 145.00 137.00"
/>
<path stroke="#f3eefc" vector-effect="non-scaling-stroke" d="
  M 217.80 172.35
  Q 200.23 171.49 192.76 169.98
  Q 169.18 165.20 152.45 148.01
  Q 149.69 145.16 145.00 137.00"
/>
<path stroke="#826f9d" vector-effect="non-scaling-stroke" d="
  M 70.95 180.86
  C 75.00 180.52 79.01 180.13 83.08 180.11
  Q 102.68 180.02 122.58 180.05
  A 0.46 0.46 0.0 0 0 122.99 179.39
  Q 118.79 170.95 116.08 161.23
  Q 109.80 138.77 111.20 115.50"
/>
<path stroke="#8e80a0" vector-effect="non-scaling-stroke" d="
  M 111.20 115.50
  Q 112.82 95.28 118.90 75.92
  C 120.99 69.25 123.79 62.90 126.80 56.79
  Q 128.05 54.27 126.24 56.42
  Q 118.03 66.22 111.09 75.65
  C 108.98 78.52 107.53 81.82 105.30 84.66
  C 99.90 91.51 95.35 99.26 90.62 106.62
  Q 87.88 110.88 85.40 115.60
  C 81.30 123.39 76.34 130.97 72.41 138.60
  Q 63.61 155.72 55.24 173.83
  Q 52.51 179.73 50.41 185.40
  Q 50.18 186.02 50.80 185.80
  Q 60.71 182.32 70.95 180.86"
/>
<path stroke="#f3eefc" vector-effect="non-scaling-stroke" d="
  M 111.20 115.50
  Q 108.81 116.93 107.36 119.97
  Q 106.45 121.90 105.45 123.13
  Q 104.54 124.25 103.23 125.30
  Q 99.75 128.10 95.81 133.15
  Q 92.51 137.40 89.78 141.72
  Q 85.80 148.05 82.05 153.94
  Q 76.84 162.11 71.17 176.44
  Q 70.08 179.18 70.95 180.86"
/>
</g>
<path fill="#1d0141" d="
  M 267.43 195.10
  L 229.71 195.04
  A 2.30 2.24 22.0 0 0 228.10 195.70
  L 213.43 210.36
  A 2.20 2.17 22.0 0 1 211.87 211.01
  L 43.95 210.99
  Q 43.21 210.99 42.81 210.37
  L 33.45 195.68
  A 1.47 1.47 0.0 0 0 32.20 195.01
  L 13.55 195.25
  Q 7.10 182.59 5.12 170.83
  Q 0.54 143.73 4.98 117.20
  C 8.00 99.16 15.40 82.46 25.31 66.90
  Q 27.45 63.54 29.80 60.52
  C 31.77 57.97 33.40 55.28 35.51 52.89
  Q 46.25 40.75 53.66 34.56
  Q 71.20 19.91 92.98 10.11
  C 103.77 5.26 115.56 2.68 127.49 1.21
  C 136.92 0.05 147.43 -0.03 156.95 1.82
  C 160.94 2.60 164.99 3.03 168.93 4.01
  Q 185.99 8.25 202.88 17.80
  Q 240.35 38.99 260.44 75.43
  Q 269.33 91.54 273.81 109.34
  Q 275.05 114.28 275.61 119.26
  C 276.12 123.75 277.06 128.36 277.30 132.78
  Q 277.85 143.23 277.26 154.83
  Q 277.04 159.29 276.22 163.74
  C 275.52 167.55 275.29 171.36 274.40 175.11
  Q 272.95 181.20 271.10 187.06
  Q 269.78 191.26 267.43 195.10
  Z
  M 128.15 23.85
  C 124.55 25.79 119.73 26.74 115.46 26.70
  Q 109.75 26.65 104.05 26.92
  Q 103.61 26.94 103.79 27.34
  Q 109.36 39.62 123.03 39.14
  Q 129.74 38.90 134.75 34.56
  Q 135.15 34.21 135.15 33.67
  L 135.15 19.60
  A 0.34 0.33 -20.2 0 0 134.60 19.35
  Q 131.17 22.22 128.15 23.85
  Z
  M 145.00 137.00
  L 145.09 179.57
  A 0.48 0.48 0.0 0 0 145.57 180.05
  L 220.46 180.08
  Q 221.04 180.08 220.81 179.55
  L 217.80 172.35
  C 214.16 165.05 211.13 156.25 208.31 149.93
  Q 202.65 137.28 196.88 124.58
  C 194.08 118.41 192.00 111.99 189.24 106.11
  Q 181.27 89.20 172.55 71.92
  C 171.89 70.61 171.41 68.67 170.61 67.12
  C 165.89 58.06 161.26 48.88 156.04 40.11
  Q 152.54 34.24 149.83 28.34
  C 148.61 25.67 146.84 23.53 145.55 20.86
  Q 145.09 19.93 145.09 20.97
  L 145.00 137.00
  Z
  M 70.95 180.86
  C 75.00 180.52 79.01 180.13 83.08 180.11
  Q 102.68 180.02 122.58 180.05
  A 0.46 0.46 0.0 0 0 122.99 179.39
  Q 118.79 170.95 116.08 161.23
  Q 109.80 138.77 111.20 115.50
  Q 112.82 95.28 118.90 75.92
  C 120.99 69.25 123.79 62.90 126.80 56.79
  Q 128.05 54.27 126.24 56.42
  Q 118.03 66.22 111.09 75.65
  C 108.98 78.52 107.53 81.82 105.30 84.66
  C 99.90 91.51 95.35 99.26 90.62 106.62
  Q 87.88 110.88 85.40 115.60
  C 81.30 123.39 76.34 130.97 72.41 138.60
  Q 63.61 155.72 55.24 173.83
  Q 52.51 179.73 50.41 185.40
  Q 50.18 186.02 50.80 185.80
  Q 60.71 182.32 70.95 180.86
  Z"
/>
<path fill="#ffffff" d="
  M 128.15 23.85
  Q 131.17 22.22 134.60 19.35
  A 0.34 0.33 -20.2 0 1 135.15 19.60
  L 135.15 33.67
  Q 135.15 34.21 134.75 34.56
  Q 129.74 38.90 123.03 39.14
  Q 109.36 39.62 103.79 27.34
  Q 103.61 26.94 104.05 26.92
  Q 109.75 26.65 115.46 26.70
  C 119.73 26.74 124.55 25.79 128.15 23.85
  Z"
/>
<path fill="#ffffff" d="
  M 217.80 172.35
  Q 200.23 171.49 192.76 169.98
  Q 169.18 165.20 152.45 148.01
  Q 149.69 145.16 145.00 137.00
  L 145.09 20.97
  Q 145.09 19.93 145.55 20.86
  C 146.84 23.53 148.61 25.67 149.83 28.34
  Q 152.54 34.24 156.04 40.11
  C 161.26 48.88 165.89 58.06 170.61 67.12
  C 171.41 68.67 171.89 70.61 172.55 71.92
  Q 181.27 89.20 189.24 106.11
  C 192.00 111.99 194.08 118.41 196.88 124.58
  Q 202.65 137.28 208.31 149.93
  C 211.13 156.25 214.16 165.05 217.80 172.35
  Z"
/>
<path fill="#ffffff" d="
  M 111.20 115.50
  Q 108.81 116.93 107.36 119.97
  Q 106.45 121.90 105.45 123.13
  Q 104.54 124.25 103.23 125.30
  Q 99.75 128.10 95.81 133.15
  Q 92.51 137.40 89.78 141.72
  Q 85.80 148.05 82.05 153.94
  Q 76.84 162.11 71.17 176.44
  Q 70.08 179.18 70.95 180.86
  Q 60.71 182.32 50.80 185.80
  Q 50.18 186.02 50.41 185.40
  Q 52.51 179.73 55.24 173.83
  Q 63.61 155.72 72.41 138.60
  C 76.34 130.97 81.30 123.39 85.40 115.60
  Q 87.88 110.88 90.62 106.62
  C 95.35 99.26 99.90 91.51 105.30 84.66
  C 107.53 81.82 108.98 78.52 111.09 75.65
  Q 118.03 66.22 126.24 56.42
  Q 128.05 54.27 126.80 56.79
  C 123.79 62.90 120.99 69.25 118.90 75.92
  Q 112.82 95.28 111.20 115.50
  Z"
/>
<path fill="#e6dcf8" d="
  M 111.20 115.50
  Q 109.80 138.77 116.08 161.23
  Q 118.79 170.95 122.99 179.39
  A 0.46 0.46 0.0 0 1 122.58 180.05
  Q 102.68 180.02 83.08 180.11
  C 79.01 180.13 75.00 180.52 70.95 180.86
  Q 70.08 179.18 71.17 176.44
  Q 76.84 162.11 82.05 153.94
  Q 85.80 148.05 89.78 141.72
  Q 92.51 137.40 95.81 133.15
  Q 99.75 128.10 103.23 125.30
  Q 104.54 124.25 105.45 123.13
  Q 106.45 121.90 107.36 119.97
  Q 108.81 116.93 111.20 115.50
  Z"
/>
<path fill="#e6dcf8" d="
  M 145.00 137.00
  Q 149.69 145.16 152.45 148.01
  Q 169.18 165.20 192.76 169.98
  Q 200.23 171.49 217.80 172.35
  L 220.81 179.55
  Q 221.04 180.08 220.46 180.08
  L 145.57 180.05
  A 0.48 0.48 0.0 0 1 145.09 179.57
  L 145.00 137.00
  Z"
/>
<path fill="#ffffff" d="
  M 267.43 195.10
  Q 262.62 205.06 259.05 210.78
  C 254.30 218.38 252.02 222.65 246.30 229.61
  Q 234.99 229.83 223.75 229.65
  C 217.98 229.55 213.31 228.54 209.42 224.12
  C 206.44 220.73 202.35 217.64 198.41 222.29
  C 195.55 225.66 191.90 228.72 187.41 229.47
  Q 180.30 230.67 174.05 228.01
  C 170.97 226.70 169.11 223.65 166.69 221.47
  C 164.27 219.29 161.00 219.50 158.86 221.94
  Q 157.50 223.50 156.02 224.96
  C 151.46 229.44 145.20 230.55 139.05 229.48
  Q 131.60 228.18 128.46 223.11
  C 125.48 218.29 120.88 219.38 117.71 223.14
  Q 110.58 231.58 98.35 229.39
  Q 91.26 228.12 87.36 222.42
  C 84.97 218.92 81.07 219.04 78.48 222.11
  C 74.82 226.46 70.05 229.02 64.25 229.55
  Q 57.63 230.15 34.71 229.49
  Q 28.30 221.93 26.65 218.83
  Q 25.61 216.88 21.18 210.06
  Q 18.28 205.60 13.55 195.25
  L 32.20 195.01
  A 1.47 1.47 0.0 0 1 33.45 195.68
  L 42.81 210.37
  Q 43.21 210.99 43.95 210.99
  L 211.87 211.01
  A 2.20 2.17 22.0 0 0 213.43 210.36
  L 228.10 195.70
  A 2.30 2.24 22.0 0 1 229.71 195.04
  L 267.43 195.10
  Z"
/>
<path fill="#1d0141" d="
  M 246.30 229.61
  Q 241.68 236.12 235.70 240.15
  Q 227.29 240.03 219.25 239.79
  Q 212.60 239.59 207.78 235.84
  Q 205.73 234.24 203.76 232.43
  A 0.85 0.84 -42.7 0 0 202.66 232.39
  C 200.74 233.94 198.93 235.54 196.78 236.82
  C 190.68 240.46 182.54 241.14 175.43 239.52
  C 170.97 238.50 167.32 235.46 163.98 232.29
  A 1.07 1.07 0.0 0 0 162.52 232.27
  C 157.56 236.80 153.03 239.68 145.92 240.24
  Q 139.03 240.79 133.84 239.25
  C 129.82 238.05 126.90 235.22 123.81 232.42
  Q 123.07 231.75 122.36 232.44
  Q 115.17 239.47 105.88 240.21
  Q 98.96 240.75 93.31 239.16
  C 89.01 237.95 86.52 234.86 83.28 232.13
  Q 82.76 231.69 82.26 232.16
  Q 73.81 240.15 63.50 240.07
  Q 54.53 240.00 45.06 240.21
  Q 39.73 235.76 34.71 229.49
  Q 57.63 230.15 64.25 229.55
  C 70.05 229.02 74.82 226.46 78.48 222.11
  C 81.07 219.04 84.97 218.92 87.36 222.42
  Q 91.26 228.12 98.35 229.39
  Q 110.58 231.58 117.71 223.14
  C 120.88 219.38 125.48 218.29 128.46 223.11
  Q 131.60 228.18 139.05 229.48
  C 145.20 230.55 151.46 229.44 156.02 224.96
  Q 157.50 223.50 158.86 221.94
  C 161.00 219.50 164.27 219.29 166.69 221.47
  C 169.11 223.65 170.97 226.70 174.05 228.01
  Q 180.30 230.67 187.41 229.47
  C 191.90 228.72 195.55 225.66 198.41 222.29
  C 202.35 217.64 206.44 220.73 209.42 224.12
  C 213.31 228.54 217.98 229.55 223.75 229.65
  Q 234.99 229.83 246.30 229.61
  Z"
/>
<path fill="#ffffff" d="
  M 235.70 240.15
  L 225.51 249.92
  Q 220.22 254.13 218.02 254.54
  C 211.43 255.75 197.04 256.09 192.61 249.79
  C 189.58 245.49 185.10 243.11 181.15 248.19
  Q 178.99 250.97 176.26 252.45
  Q 165.10 258.49 152.46 253.28
  C 150.13 252.32 148.25 249.78 146.61 247.88
  C 141.53 242.00 137.57 247.36 133.96 250.78
  C 128.19 256.25 117.52 256.70 110.40 254.08
  C 107.24 252.92 104.83 250.53 102.78 247.91
  C 100.20 244.63 95.59 244.34 92.81 247.53
  C 90.14 250.58 87.73 253.07 83.50 254.01
  Q 73.16 256.30 61.75 254.49
  Q 53.04 248.83 45.06 240.21
  Q 54.53 240.00 63.50 240.07
  Q 73.81 240.15 82.26 232.16
  Q 82.76 231.69 83.28 232.13
  C 86.52 234.86 89.01 237.95 93.31 239.16
  Q 98.96 240.75 105.88 240.21
  Q 115.17 239.47 122.36 232.44
  Q 123.07 231.75 123.81 232.42
  C 126.90 235.22 129.82 238.05 133.84 239.25
  Q 139.03 240.79 145.92 240.24
  C 153.03 239.68 157.56 236.80 162.52 232.27
  A 1.07 1.07 0.0 0 1 163.98 232.29
  C 167.32 235.46 170.97 238.50 175.43 239.52
  C 182.54 241.14 190.68 240.46 196.78 236.82
  C 198.93 235.54 200.74 233.94 202.66 232.39
  A 0.85 0.84 -42.7 0 1 203.76 232.43
  Q 205.73 234.24 207.78 235.84
  Q 212.60 239.59 219.25 239.79
  Q 227.29 240.03 235.70 240.15
  Z"
/>
<path fill="#1d0141" d="
  M 225.51 249.92
  Q 223.09 252.73 219.73 254.32
  Q 219.44 254.45 219.25 254.70
  Q 219.13 254.86 219.02 255.02
  Q 218.91 255.17 218.76 255.26
  Q 209.66 260.57 200.50 265.59
  C 194.86 264.29 190.55 261.18 186.54 257.17
  Q 186.13 256.76 185.73 257.18
  Q 174.04 269.36 155.99 265.68
  Q 147.80 264.01 141.97 256.89
  Q 141.62 256.46 141.27 256.89
  C 130.85 269.59 108.26 270.10 97.95 256.94
  Q 97.59 256.48 97.18 256.91
  Q 90.60 263.93 81.29 265.56
  Q 71.03 261.05 61.75 254.49
  Q 73.16 256.30 83.50 254.01
  C 87.73 253.07 90.14 250.58 92.81 247.53
  C 95.59 244.34 100.20 244.63 102.78 247.91
  C 104.83 250.53 107.24 252.92 110.40 254.08
  C 117.52 256.70 128.19 256.25 133.96 250.78
  C 137.57 247.36 141.53 242.00 146.61 247.88
  C 148.25 249.78 150.13 252.32 152.46 253.28
  Q 165.10 258.49 176.26 252.45
  Q 178.99 250.97 181.15 248.19
  C 185.10 243.11 189.58 245.49 192.61 249.79
  C 197.04 256.09 211.43 255.75 218.02 254.54
  Q 220.22 254.13 225.51 249.92
  Z"
/>
<path fill="#ffffff" d="
  M 200.50 265.59
  Q 190.65 271.18 180.50 273.80
  Q 171.90 276.02 163.75 277.48
  Q 136.89 282.28 111.76 276.40
  Q 107.84 275.48 104.18 274.72
  Q 100.39 273.93 96.83 272.70
  Q 88.70 269.88 81.29 265.56
  Q 90.60 263.93 97.18 256.91
  Q 97.59 256.48 97.95 256.94
  C 108.26 270.10 130.85 269.59 141.27 256.89
  Q 141.62 256.46 141.97 256.89
  Q 147.80 264.01 155.99 265.68
  Q 174.04 269.36 185.73 257.18
  Q 186.13 256.76 186.54 257.17
  C 190.55 261.18 194.86 264.29 200.50 265.59
  Z"
/>
</svg>
